<?xml version="1.0" encoding="utf-8"?>
<!-- Generator: Adobe Illustrator 16.0.3, SVG Export Plug-In . SVG Version: 6.00 Build 0)  -->
<!DOCTYPE svg PUBLIC "-//W3C//DTD SVG 1.1//EN" "http://www.w3.org/Graphics/SVG/1.1/DTD/svg11.dtd">
<svg version="1.1" id="Layer_1" xmlns="http://www.w3.org/2000/svg" xmlns:xlink="http://www.w3.org/1999/xlink" x="0px" y="0px"
	 width="600px" height="300px" viewBox="58.875 360.13 600 300" enable-background="new 58.875 360.13 600 300"
	 xml:space="preserve">
<rect x="58.875" y="360.13" display="none" width="600" height="300"/>
<g id="solid" display="none">
	<g display="inline">
		<path fill="#FFFFFF" d="M116.081,519.825c0-4.99,3.851-8.839,8.841-8.839h28.376c31.368,0,53.04,21.53,53.04,49.618v0.287
			c0,28.09-21.671,49.902-53.04,49.902h-28.375c-4.99,0-8.841-3.852-8.841-8.844v-82.125H116.081z M153.299,594.825
			c20.959,0,34.646-14.115,34.646-33.648v-0.285c0-19.535-13.686-33.938-34.646-33.938H133.62v67.871H153.299z"/>
		<path fill="#FFFFFF" d="M227.584,601.95v-82.125c0-4.99,3.85-8.839,8.84-8.839h58.033c4.276,0,7.844,3.562,7.844,7.841
			c0,4.42-3.566,7.844-7.844,7.844h-49.335v25.955h42.918c4.279,0,7.844,3.557,7.844,7.979c0,4.279-3.564,7.699-7.844,7.699h-42.918
			v26.805h50.049c4.277,0,7.841,3.564,7.841,7.844c0,4.418-3.563,7.842-7.841,7.842h-58.747
			C231.434,610.793,227.584,606.942,227.584,601.95z"/>
		<path fill="#FFFFFF" d="M352.068,605.088l-34.937-82.125c-0.57-1.283-1-2.567-1-4.137c0-4.705,3.85-8.553,8.84-8.553
			c4.563,0,7.557,2.564,8.983,6.27l28.806,72.008l29.227-72.576c1.143-2.992,4.279-5.701,8.412-5.701
			c4.848,0,8.697,3.705,8.697,8.411c0,1.284-0.43,2.71-0.855,3.707l-35.068,82.696c-1.855,4.422-5.137,7.131-10.127,7.131h-0.998
			C357.202,612.219,353.918,609.51,352.068,605.088z"/>
	</g>
	<path display="inline" fill="#FFFFFF" d="M536.135,538.043c0,1.635-1.328,2.961-2.961,2.961h-23.691
		c-1.637,0-2.957-1.326-2.957-2.961v-23.687c0-1.638,1.32-2.963,2.957-2.963h23.691c1.633,0,2.961,1.325,2.961,2.963V538.043z"/>
	<path display="inline" fill="#FFFFFF" d="M596.833,443.293H469.506c-4.084,0-7.402,3.313-7.402,7.402v27.924v3.166v11.842
		c0,1.637,1.326,2.961,2.963,2.961h11.844h3.17h0.32h3.912h4.445c1.635,0,2.963-1.324,2.963-2.961v-4.438v-3.912v-10.895
		c0-4.09,3.313-7.403,7.4-7.403c4.084,0,7.402,3.313,7.402,7.403v10.895v3.912v4.438c0,1.637,1.32,2.961,2.957,2.961h4.447h3.904
		h6.986h3.91h4.443c1.633,0,2.961-1.324,2.961-2.961v-4.438v-3.912v-10.895c0-4.09,3.313-7.403,7.398-7.403
		c4.088,0,7.406,3.313,7.406,7.403v10.895v3.912v4.438c0,1.637,1.322,2.961,2.959,2.961h4.445h3.906h10.896
		c4.084,0,7.4,3.318,7.4,7.406s-3.316,7.4-7.4,7.4h-10.896h-3.906h-4.445c-1.637,0-2.959,1.324-2.959,2.963v4.439v14.805v4.441
		c0,1.635,1.322,2.961,2.959,2.961h4.445h3.906h10.896c4.084,0,7.4,3.314,7.4,7.404c0,4.088-3.316,7.402-7.4,7.402h-10.896h-3.906
		h-4.445c-1.637,0-2.959,1.326-2.959,2.963v4.439v3.91v9.418v1.479v4.438c0,1.639,1.322,2.967,2.959,2.967h4.445h1.479h37.01
		c4.09,0,7.402-3.318,7.402-7.404V450.696C604.237,446.607,600.922,443.293,596.833,443.293z"/>
	<path display="inline" fill="#FFFFFF" d="M533.17,555.811h-4.439h-4.441h-5.922h-2.963h-5.922c-1.635,0-2.957,1.328-2.957,2.963
		v4.441v4.443v10.361c0,4.086-3.316,7.402-7.404,7.402s-7.402-3.316-7.402-7.402v-10.361v-4.443v-4.441
		c0-1.635-1.326-2.963-2.963-2.963h-4.441h-4.441h-10.361c-4.088,0-7.404-3.313-7.404-7.402s3.316-7.402,7.404-7.402h10.361h4.441
		h4.441c1.637,0,2.963-1.328,2.963-2.963v-4.439v-14.805v-4.442c0-1.636-1.326-2.961-2.963-2.961h-4.441h-4.441h-39.973
		c-4.088,0-7.404,3.313-7.404,7.403v88.834c0,4.09,3.316,7.4,7.404,7.4h88.832c4.088,0,7.4-3.313,7.4-7.4v-39.975v-4.443v-4.439
		C536.131,557.139,534.807,555.811,533.17,555.811z"/>
</g>
<g id="wire">
	<g>
		<path fill="#FFFFFF" d="M116.081,504.859c0-4.99,3.851-8.839,8.841-8.839h28.376c31.368,0,53.04,21.53,53.04,49.618v0.287
			c0,28.09-21.671,49.902-53.04,49.902h-28.375c-4.99,0-8.841-3.852-8.841-8.844v-82.125H116.081z M153.299,579.859
			c20.959,0,34.646-14.115,34.646-33.648v-0.285c0-19.535-13.686-33.938-34.646-33.938H133.62v67.871H153.299z"/>
		<path fill="#FFFFFF" d="M227.584,586.984v-82.125c0-4.99,3.85-8.839,8.84-8.839h58.033c4.276,0,7.844,3.562,7.844,7.841
			c0,4.42-3.566,7.844-7.844,7.844h-49.335v25.955h42.918c4.279,0,7.844,3.557,7.844,7.979c0,4.279-3.564,7.699-7.844,7.699h-42.918
			v26.805h50.049c4.277,0,7.841,3.564,7.841,7.844c0,4.418-3.563,7.842-7.841,7.842h-58.747
			C231.434,595.828,227.584,591.976,227.584,586.984z"/>
		<path fill="#FFFFFF" d="M352.068,590.123l-34.937-82.125c-0.57-1.283-1-2.567-1-4.137c0-4.705,3.85-8.553,8.84-8.553
			c4.563,0,7.557,2.564,8.983,6.27l28.806,72.008l29.227-72.576c1.143-2.992,4.279-5.701,8.412-5.701
			c4.848,0,8.697,3.705,8.697,8.411c0,1.284-0.43,2.71-0.855,3.707l-35.068,82.696c-1.855,4.422-5.137,7.131-10.127,7.131h-0.998
			C357.202,597.253,353.918,594.544,352.068,590.123z"/>
	</g>
	<g>
		<path fill="#FFFFFF" d="M532.135,500.428v21.61h-21.609v-21.61H532.135 M533.174,496.428h-23.691
			c-1.637,0-2.957,1.325-2.957,2.963v23.687c0,1.635,1.32,2.961,2.957,2.961h23.691c1.633,0,2.961-1.326,2.961-2.961v-23.687
			C536.135,497.753,534.807,496.428,533.174,496.428L533.174,496.428z"/>
	</g>
	<g>
		<path fill="#FFFFFF" d="M596.833,432.328c0.91,0,1.765,0.354,2.407,0.996c0.642,0.642,0.994,1.495,0.993,2.406v127.324
			c0,1.877-1.526,3.404-3.402,3.404h-37.01h-1.479h-3.404v-3.404v-1.479v-9.418v-3.91v-3.402h3.404h3.906h10.896
			c6.286,0,11.4-5.115,11.4-11.402c0-6.288-5.114-11.404-11.4-11.404h-10.896h-3.906h-3.404v-3.402v-14.805v-3.402h3.404h3.906
			h10.896c6.286,0,11.4-5.114,11.4-11.4c0-6.289-5.114-11.406-11.4-11.406h-10.896h-3.906h-3.404v-3.398v-3.912v-10.895
			c0-6.288-5.117-11.403-11.406-11.403c-6.285,0-11.398,5.115-11.398,11.403v10.895v3.912v3.398h-3.404h-3.91h-6.986h-3.904h-3.404
			v-3.398v-3.912v-10.895c0-6.288-5.115-11.403-11.402-11.403c-6.286,0-11.4,5.115-11.4,11.403v10.895v3.912v3.398h-3.408h-3.912
			h-0.32h-3.17h-10.807V466.82v-3.166V435.73c0-1.876,1.526-3.402,3.402-3.402H596.833 M596.833,428.328H469.506
			c-4.084,0-7.402,3.313-7.402,7.402v27.924v3.166v11.842c0,1.637,1.326,2.961,2.963,2.961h11.844h3.17h0.32h3.912h4.445
			c1.635,0,2.963-1.324,2.963-2.961v-4.438v-3.912v-10.895c0-4.09,3.313-7.403,7.4-7.403c4.084,0,7.402,3.313,7.402,7.403v10.895
			v3.912v4.438c0,1.637,1.32,2.961,2.957,2.961h4.447h3.904h6.986h3.91h4.443c1.633,0,2.961-1.324,2.961-2.961v-4.438v-3.912
			v-10.895c0-4.09,3.313-7.403,7.398-7.403c4.088,0,7.406,3.313,7.406,7.403v10.895v3.912v4.438c0,1.637,1.322,2.961,2.959,2.961
			h4.445h3.906h10.896c4.084,0,7.4,3.318,7.4,7.406s-3.316,7.4-7.4,7.4h-10.896h-3.906h-4.445c-1.637,0-2.959,1.324-2.959,2.963
			v4.439v14.805v4.441c0,1.635,1.322,2.961,2.959,2.961h4.445h3.906h10.896c4.084,0,7.4,3.314,7.4,7.404
			c0,4.088-3.316,7.402-7.4,7.402h-10.896h-3.906h-4.445c-1.637,0-2.959,1.326-2.959,2.963v4.439v3.91v9.418v1.479v4.438
			c0,1.639,1.322,2.967,2.959,2.967h4.445h1.479h37.01c4.09,0,7.402-3.318,7.402-7.404V435.73
			C604.237,431.641,600.922,428.328,596.833,428.328L596.833,428.328z"/>
	</g>
	<g>
		<path fill="#FFFFFF" d="M487.719,500.43v3.403v14.805v3.402h-3.404h-4.441h-10.361c-6.288,0-11.404,5.115-11.404,11.402
			s5.116,11.402,11.404,11.402h10.361h4.441h3.404v3.404v4.443v10.361c0,6.287,5.115,11.402,11.402,11.402
			c6.288,0,11.404-5.115,11.404-11.402v-10.361v-4.443v-3.404h4.879h2.963h5.922h4.441h3.402v3.404v4.443v39.975
			c0,1.875-1.525,3.4-3.4,3.4h-88.832c-1.877,0-3.404-1.525-3.404-3.4v-88.834c0-1.877,1.527-3.403,3.404-3.403h39.973h4.441
			H487.719 M488.756,496.43h-4.441h-4.441h-39.973c-4.088,0-7.404,3.313-7.404,7.403v88.834c0,4.09,3.316,7.4,7.404,7.4h88.832
			c4.088,0,7.4-3.313,7.4-7.4v-39.975v-4.443v-4.439c-0.002-1.637-1.326-2.965-2.963-2.965h-4.439h-4.441h-5.922h-2.963h-5.922
			c-1.635,0-2.957,1.328-2.957,2.963v4.441v4.443v10.361c0,4.086-3.316,7.402-7.404,7.402s-7.402-3.316-7.402-7.402v-10.361v-4.443
			v-4.441c0-1.635-1.326-2.963-2.963-2.963h-4.441h-4.441h-10.361c-4.088,0-7.404-3.313-7.404-7.402s3.316-7.402,7.404-7.402h10.361
			h4.441h4.441c1.637,0,2.963-1.328,2.963-2.963v-4.439v-14.805v-4.442C491.719,497.755,490.393,496.43,488.756,496.43
			L488.756,496.43z"/>
	</g>
</g>
</svg>
